<?xml version="1.0" encoding="UTF-8" standalone="no"?>
<svg
   xmlns:osb="http://www.openswatchbook.org/uri/2009/osb"
   xmlns:dc="http://purl.org/dc/elements/1.1/"
   xmlns:cc="http://creativecommons.org/ns#"
   xmlns:rdf="http://www.w3.org/1999/02/22-rdf-syntax-ns#"
   xmlns:svg="http://www.w3.org/2000/svg"
   xmlns="http://www.w3.org/2000/svg"
   id="svg8"
   version="1.1"
   viewBox="0 0 22.333191 9.168094"
   height="9.1680937mm"
   width="22.333191mm">
  <defs
     id="defs2">
    <linearGradient
       osb:paint="solid"
       id="linearGradient882">
      <stop
         id="stop880"
         offset="0"
         style="stop-color:#000000;stop-opacity:1;" />
    </linearGradient>
  </defs>
  <metadata
     id="metadata5">
    <rdf:RDF>
      <cc:Work
         rdf:about="">
        <dc:format>image/svg+xml</dc:format>
        <dc:type
           rdf:resource="http://purl.org/dc/dcmitype/StillImage" />
        <dc:title></dc:title>
      </cc:Work>
    </rdf:RDF>
  </metadata>
  <g
     transform="translate(-3.0076509,-101.68182)"
     id="layer1">
    <path
       id="path4632"
       d="m 3.010366,110.82428 c -0.012443,-0.0324 0.018938,-0.11099 0.072514,-0.18154 0.06018,-0.0793 0.4160819,-0.80265 0.6497753,-1.32071 0.2108042,-0.46732 0.4626949,-1.10582 0.8967932,-2.27322 0.076719,-0.20632 0.5689275,-1.21094 0.5708609,-1.16516 5.495e-4,0.0127 -0.032613,0.20492 -0.07367,0.42702 -0.060611,0.32787 -0.07254,0.42696 -0.063435,0.52688 0.00946,0.10383 0.00519,0.13486 -0.027339,0.19862 -0.046666,0.0915 -0.028605,0.11358 0.1077723,0.13188 0.2144558,0.0288 0.4611676,-0.14478 0.7276072,-0.51189 0.1916383,-0.26405 0.3078943,-0.32631 0.4322185,-0.23148 0.077158,0.0589 0.028661,0.42435 -0.138033,1.0403 -0.039808,0.1471 -0.112132,0.11925 -0.1448295,-0.0558 -0.044716,-0.23934 -0.024952,-0.22281 -0.1527631,-0.12781 -0.3067954,0.22804 -0.7240236,0.3552 -0.9198616,0.28034 -0.054372,-0.0208 -0.1003968,-0.0359 -0.1022778,-0.0337 -0.00188,0.002 -0.1613164,0.34754 -0.3543008,0.76729 -0.7479936,1.62692 -1.3999602,2.74018 -1.4810318,2.52891 z m 10.304293,-0.17509 c -0.08457,-0.0128 -0.118112,-0.0303 -0.118112,-0.0615 0,-0.0547 0.381021,-0.37215 0.619617,-0.51626 0.38206,-0.23078 0.841959,-0.85258 0.863874,-1.16799 0.0094,-0.13564 0.0094,-0.13564 -0.148605,-0.39793 -0.425519,-0.70624 -0.325861,-1.0761 0.602182,-2.23483 0.335033,-0.41831 0.305911,-0.4456 -0.292531,-0.27407 -0.159812,0.0458 -0.15807,0.0459 -0.151175,-0.0112 0.0066,-0.0549 0.190936,-0.17128 0.396427,-0.2503 1.084992,-0.4172 1.108016,-0.1057 0.08371,1.13261 -0.338184,0.40884 -0.501646,0.72636 -0.501646,0.97442 0,0.13461 0.01279,0.16455 0.216568,0.50695 0.269208,0.45233 0.236662,0.79014 -0.125712,1.30486 -0.437033,0.62076 -1.064338,1.05295 -1.444598,0.99527 z m -5.0255783,-3.12155 c -0.3659299,-0.18534 -0.2004723,-0.91333 0.2787741,-1.22656 0.2742296,-0.17923 0.7830791,-0.19872 0.9043905,-0.0346 0.040661,0.055 0.040661,0.055 0.1062618,0.003 0.066956,-0.0532 0.3619686,-0.19123 0.3768834,-0.17632 0.00453,0.005 -0.056918,0.11452 -0.136542,0.24443 -0.2018033,0.32925 -0.3837071,0.71096 -0.3837071,0.80518 0,0.009 0.052694,0.0171 0.1170985,0.0171 0.2120899,0 0.2580389,0.0848 0.1366864,0.25235 -0.1284987,0.17739 -0.5010113,0.20485 -0.6088137,0.0449 -0.038127,-0.0566 -0.038127,-0.0566 -0.1368284,0.004 -0.1930922,0.11812 -0.4926298,0.14876 -0.6542035,0.0669 z m 0.3793309,-0.36895 c 0.046924,-0.0205 0.1054475,-0.0471 0.1300535,-0.0591 0.052444,-0.0255 0.2550843,-0.22789 0.2550843,-0.25481 0,-0.0101 0.01165,-0.0314 0.025889,-0.0471 0.059227,-0.0656 0.1319516,-0.23067 0.1181205,-0.26806 -0.0552,-0.14922 -0.4627006,0.0719 -0.6252365,0.33931 -0.1396978,0.22981 -0.092458,0.37226 0.096089,0.28975 z m 3.2234194,0.35334 c -0.217503,-0.11137 -0.102434,-0.64908 0.218713,-1.02204 0.07892,-0.0917 0.05374,-0.088 -0.16172,0.0238 -0.22315,0.11576 -0.288615,0.11741 -0.333771,0.008 -0.194755,-0.47018 1.078238,-0.65124 1.561645,-0.22212 0.170772,0.15159 0.07845,0.20889 -0.152336,0.0945 -0.386309,-0.19143 -0.489939,-0.12644 -0.772017,0.48412 -0.103627,0.2243 -0.100712,0.25368 0.02516,0.25368 0.182743,0 0.239812,0.10678 0.132779,0.24844 -0.102762,0.136 -0.374654,0.20479 -0.518456,0.13116 z m 5.683936,-0.0408 c -0.186102,-0.0942 -0.218051,-0.14996 -0.218051,-0.38026 0,-0.88605 1.329227,-1.45971 1.428336,-0.61644 0.05662,0.48179 -0.812951,1.1979 -1.210285,0.9967 z m 0.360132,-0.40987 c 0.207512,-0.10516 0.535762,-0.54831 0.455499,-0.61494 -0.108498,-0.0901 -0.453186,0.14032 -0.579353,0.38725 -0.125551,0.24573 -0.07935,0.33066 0.123854,0.22769 z m 2.878479,0.3859 c -0.03394,-0.0339 -0.02997,-0.0578 0.07861,-0.47354 0.211294,-0.809 0.322903,-1.15242 0.59508,-1.83107 0.08618,-0.21488 0.225406,-0.5624 0.309404,-0.77228 0.272858,-0.68176 0.403257,-0.99255 0.581764,-1.38659 0.09647,-0.21295 0.175401,-0.39005 0.175401,-0.39356 0,-0.0647 0.254084,-0.56158 0.323754,-0.63312 0.174966,-0.17967 0.315649,-0.19692 0.285268,-0.035 -0.01332,0.071 -0.01451,0.0714 0.126905,-0.0337 0.777204,-0.57725 1.295605,0.14357 0.771675,1.07298 -0.440598,0.7816 -1.259473,1.26819 -1.540813,0.91559 -0.02671,-0.0335 -0.05357,-0.0609 -0.0597,-0.0609 -0.01071,0 -0.106967,0.20199 -0.106967,0.22446 0,0.006 -0.09894,0.24214 -0.219862,0.52469 -0.120925,0.28256 -0.287852,0.67728 -0.370948,0.87716 -0.0831,0.19988 -0.18126,0.42883 -0.218139,0.50879 -0.03688,0.0799 -0.136723,0.30482 -0.221873,0.4997 -0.08515,0.19488 -0.188229,0.41541 -0.229067,0.49005 -0.04084,0.0747 -0.103323,0.22175 -0.138854,0.32689 -0.06418,0.18992 -0.0937,0.2273 -0.141631,0.17936 z m 1.748466,-3.77505 c 0.01232,-0.0199 0.188414,-0.0771 0.360251,-0.11701 0.517594,-0.12013 1.27959,-1.4207 0.845708,-1.44345 -0.28183,-0.0148 -1.019545,0.8598 -1.201398,1.42429 -0.0062,0.0191 -0.02344,0.0614 -0.03837,0.0939 -0.02621,0.057 0.0025,0.0929 0.03381,0.0423 z m 1.634143,3.71634 c -0.300339,-0.13985 -0.220681,-0.42073 0.197871,-0.69771 0.06907,-0.0457 0.06907,-0.0457 0.01908,-0.0979 -0.246487,-0.25728 0.155846,-0.59763 0.720985,-0.60992 0.295236,-0.006 0.290117,0.001 -0.127246,0.19272 -0.298321,0.13679 -0.321548,0.16617 -0.131366,0.16617 0.428157,0 0.254419,0.49069 -0.227943,0.64378 -0.07772,0.0247 -0.03931,0.0383 0.09133,0.0324 0.257893,-0.0116 0.342187,0.10074 0.191844,0.25576 -0.154683,0.1595 -0.516871,0.21605 -0.734557,0.11469 z m -5.573356,-1.71289 c -0.03119,-0.0312 -0.005,-0.11694 0.06959,-0.22817 0.102802,-0.15324 0.156108,-0.27368 0.238739,-0.53941 0.09399,-0.30223 0.14779,-0.38564 0.265446,-0.41148 0.234461,-0.0515 0.05892,0.4582 -0.337892,0.98109 -0.156493,0.20621 -0.195177,0.23868 -0.235881,0.19797 z"
       style="fill:#000000;fill-opacity:1;stroke:none;stroke-width:0.12;stroke-miterlimit:4;stroke-dasharray:none;stroke-opacity:1" />
  </g>
</svg>
